<?xml version="1.0" encoding="UTF-8" standalone="no"?>
<!-- Created with Inkscape (http://www.inkscape.org/) -->

<svg
   width="512"
   height="512"
   viewBox="0 0 512 512"
   version="1.1"
   id="svg1"
   xml:space="preserve"
   inkscape:version="1.3 (0e150ed6c4, 2023-07-21)"
   sodipodi:docname="bier5.svg"
   xmlns:inkscape="http://www.inkscape.org/namespaces/inkscape"
   xmlns:sodipodi="http://sodipodi.sourceforge.net/DTD/sodipodi-0.dtd"
   xmlns="http://www.w3.org/2000/svg"
   xmlns:svg="http://www.w3.org/2000/svg"><sodipodi:namedview
     id="namedview1"
     pagecolor="#505050"
     bordercolor="#eeeeee"
     borderopacity="1"
     inkscape:showpageshadow="0"
     inkscape:pageopacity="0"
     inkscape:pagecheckerboard="0"
     inkscape:deskcolor="#505050"
     inkscape:document-units="px"
     showgrid="true"
     inkscape:zoom="1.6379466"
     inkscape:cx="110.50422"
     inkscape:cy="283.28152"
     inkscape:window-width="2560"
     inkscape:window-height="1377"
     inkscape:window-x="-8"
     inkscape:window-y="-8"
     inkscape:window-maximized="1"
     inkscape:current-layer="layer1"><inkscape:grid
       id="grid1"
       units="px"
       originx="0"
       originy="0"
       spacingx="1"
       spacingy="1"
       empcolor="#0099e5"
       empopacity="0.30196078"
       color="#0099e5"
       opacity="0.14901961"
       empspacing="5"
       dotted="false"
       gridanglex="30"
       gridanglez="30"
       visible="true" /></sodipodi:namedview><defs
     id="defs1">&#10;	&#10;	&#10;	&#10;&#10;	&#10;	&#10;</defs><g
     inkscape:label="Layer 1"
     inkscape:groupmode="layer"
     id="layer1"><g
       id="g1"
       transform="matrix(0.93887613,0,0,0.93887613,15.650997,23.111497)"
       style="stroke-width:1.0651"><path
         style="fill:#003a1e;fill-opacity:1;stroke-width:1.0651"
         d="m 285.9505,42.136182 h -59.909 c -5.113,0 -8.866,-4.806 -7.625,-9.766 l 2.937,-11.75 c 1.543,-6.172 7.088,-10.501 13.449,-10.501 h 42.386 c 6.362,0 11.907,4.33 13.449,10.501 l 2.937,11.75 c 1.241,4.96 -2.511,9.766 -7.624,9.766 z"
         id="path1" /><path
         style="fill:#f7931e;stroke-width:1.0651"
         d="m 295.8805,506.38318 h -79.77 c -17.758,0 -32.154,-14.395 -32.154,-32.154 v -206.703 c 0,-37.751 8.192,-75.053 24.012,-109.329 l 0.001,-0.001 c 15.82,-34.276 24.012,-71.576998 24.012,-109.327998 v -6.733 h 48.025 v 6.732 c 0,37.751 8.193,75.052998 24.013,109.329998 v 0 c 15.82,34.276 24.013,71.578 24.013,109.33 v 206.703 c 10e-4,17.758 -14.394,32.153 -32.152,32.153 z"
         id="path2" /><path
         style="fill:#aa5e04;fill-opacity:1;stroke-width:1.0651"
         d="m 303.5095,158.19718 c -15.82,-34.276 -23.604,-71.577998 -23.604,-109.329998 v -6.312 h -24.129 v 6.312 c 0,37.752 8.309,75.053998 24.129,109.329998 15.82,34.276 24.129,71.578 24.129,109.33 v 206.702 c 0,17.758 -14.408,32.016 -32.167,32.016 h 24.013 c 17.758,0 31.233,-14.258 31.233,-32.016 v -206.702 c 0,-37.751 -7.784,-75.053 -23.604,-109.33 z"
         id="path3" /><polygon
         style="fill:#003a1e;fill-opacity:1;stroke-width:1.0651"
         points="288.015,95.914 296.019,135.935 215.976,135.935 223.981,95.914 "
         id="polygon4"
         transform="translate(-0.00249481,2.2511825)" /><rect
         x="183.96051"
         y="418.33319"
         style="fill:#003a1e;fill-opacity:1;stroke-width:1.0651"
         width="144.07899"
         height="24.013"
         id="rect4" /><rect
         x="183.96051"
         y="306.2822"
         style="fill:#fcf7d5;fill-opacity:1;stroke-width:1.0651"
         width="144.07899"
         height="112.062"
         id="rect5" /><circle
         style="fill:#fcf7d5;fill-opacity:1;stroke-width:1.0651"
         cx="256.00049"
         cy="306.2822"
         r="40.021999"
         id="circle5" /><rect
         x="183.96051"
         y="282.2692"
         style="fill:#003a1e;fill-opacity:1;stroke-width:1.0651"
         width="32.016998"
         height="24.013"
         id="rect6" /><rect
         x="296.02249"
         y="282.2692"
         style="fill:#003a1e;fill-opacity:1;stroke-width:1.0651"
         width="32.016998"
         height="24.013"
         id="rect7" /><circle
         style="fill:#003a1e;fill-opacity:1;stroke-width:1.0651"
         cx="256.00049"
         cy="306.2822"
         r="16.009001"
         id="circle7" /><path
         d="m 255.9955,330.15318 c -13.166,0 -23.877,-10.711 -23.877,-23.877 0,-13.166 10.711,-23.877 23.877,-23.877 13.166,0 23.877,10.711 23.877,23.877 0,13.166 -10.712,23.877 -23.877,23.877 z m 0,-32.017 c -4.489,0 -8.141,3.652 -8.141,8.141 0,4.489 3.652,8.141 8.141,8.141 4.489,0 8.141,-3.652 8.141,-8.141 0,-4.489 -3.653,-8.141 -8.141,-8.141 z"
         id="path7"
         style="stroke-width:1.0651" /><rect
         x="208.5715"
         y="386.65219"
         width="95.464996"
         height="15.736"
         id="rect8"
         style="stroke-width:1.0651" /><rect
         x="223.2585"
         y="362.52319"
         width="65.042"
         height="15.736"
         id="rect9"
         style="stroke-width:1.0651" /><circle
         style="fill:#fcf7d5;fill-opacity:1;stroke-width:1.0651"
         cx="256.00049"
         cy="138.19017"
         r="16.009001"
         id="circle9" /><path
         d="m 311.1645,154.90118 c -15.094,-32.706 -23.126,-68.996998 -23.274,-105.020998 4.121,-0.504 7.858,-2.596 10.456,-5.924 3.001,-3.844 4.044,-8.763 2.862,-13.494 l -2.937,-11.75 C 295.8485,9.0201825 287.1785,2.2511825 277.1885,2.2511825 h -42.386 c -9.99,0 -18.66,6.769 -21.082,16.4599995 l -2.937,11.75 c -1.183,4.732 -0.14,9.649 2.862,13.494 2.599,3.328 6.335,5.421 10.457,5.924 -0.148,36.025 -8.181,72.317998 -23.275,105.020998 -16.183,35.063 -24.737,74.009 -24.737,112.625 v 206.703 c 0,22.068 17.954,40.021 40.021,40.021 h 79.77 c 22.068,0 40.021,-17.953 40.021,-40.021 v -206.701 c -10e-4,-38.618 -8.555,-77.564 -24.738,-112.626 z m -32.509,-24.224 c -3.156,-9.496 -12.118,-16.368 -22.66,-16.368 -10.542,0 -19.504,6.87 -22.66,16.368 h -6.293 c 2.527,-7.934 4.705,-15.988 6.494,-24.129 h 44.919 c 1.789,8.141 3.967,16.193 6.494,24.129 z m -14.52,7.509 c 0,4.488 -3.652,8.141 -8.141,8.141 -4.489,0 -8.141,-3.652 -8.141,-8.141 0,-4.489 3.652,-8.141 8.141,-8.141 4.489,0.001 8.141,3.654 8.141,8.141 z m 8.008,-88.180998 c 0.06,13.63 1.202,27.293 3.349,40.808 h -38.993 c 2.146,-13.516 3.29,-27.178 3.35,-40.808 z m -37.341,-32.018 h 42.386 c 2.756,0 5.149,1.867 5.817,4.541 l 2.965,11.738 c 0,0 -0.006,10e-4 -0.019,10e-4 h -59.9 l 2.935,-11.739 c 0.668,-2.674 3.06,-4.541 5.816,-4.541 z m -19.689,143.506998 c 2.285,-4.951 4.4,-9.987 6.378,-15.08 h 12.088 c 3.359,9.125 12.14,15.65 22.415,15.65 10.276,0 19.056,-6.525 22.415,-15.65 h 12.087 c 1.979,5.094 4.093,10.13 6.378,15.081 15.236,33.01 23.288,69.676 23.288,106.033 v 6.872 h -28.472 c -8.775,-9.818 -21.525,-16.013 -35.699,-16.013 -14.174,0 -26.923,6.195 -35.699,16.013 h -28.472 v -6.874 c 0.005,-36.355 8.058,-73.021 23.293,-106.032 z m -23.288,249.285 v -96.514 h 16.96 c 3.815,22.616 23.526,39.901 47.21,39.901 23.684,0 43.395,-17.287 47.21,-39.901 h 16.96 v 96.514 z m 128.34,15.736 v 7.344 h -128.34 v -7.344 z m -111.424,-127.987 h -16.917 v -8.393 h 19.087 c -0.967,2.695 -1.697,5.501 -2.17,8.393 z m 15.1,7.749 c 0,-17.729 14.424,-32.153 32.153,-32.153 17.729,0 32.153,14.424 32.153,32.153 0,17.729 -14.424,32.153 -32.153,32.153 -17.729,0 -32.153,-14.424 -32.153,-32.153 z m 79.407,-7.749 c -0.473,-2.892 -1.202,-5.699 -2.171,-8.393 h 19.087 v 8.393 z m -7.368,199.987 h -79.77 c -13.391,0 -24.285,-10.895 -24.285,-24.285 v -24.634 h 128.34 v 24.634 c 0,13.39 -10.895,24.285 -24.285,24.285 z"
         id="path9"
         style="stroke-width:1.0651" /></g></g></svg>
