<?xml version="1.0" encoding="UTF-8" standalone="no"?>
<!-- Created with Inkscape (http://www.inkscape.org/) -->

<svg
   width="512"
   height="512"
   viewBox="0 0 135.46666 135.46667"
   version="1.1"
   id="svg1"
   xml:space="preserve"
   sodipodi:docname="can33.svg"
   inkscape:version="1.3 (0e150ed6c4, 2023-07-21)"
   xmlns:inkscape="http://www.inkscape.org/namespaces/inkscape"
   xmlns:sodipodi="http://sodipodi.sourceforge.net/DTD/sodipodi-0.dtd"
   xmlns="http://www.w3.org/2000/svg"
   xmlns:svg="http://www.w3.org/2000/svg"><sodipodi:namedview
     id="namedview1"
     pagecolor="#505050"
     bordercolor="#eeeeee"
     borderopacity="1"
     inkscape:showpageshadow="0"
     inkscape:pageopacity="0"
     inkscape:pagecheckerboard="0"
     inkscape:deskcolor="#505050"
     inkscape:document-units="mm"
     showgrid="true"
     inkscape:zoom="1.4941896"
     inkscape:cx="179.36144"
     inkscape:cy="239.59475"
     inkscape:window-width="2560"
     inkscape:window-height="1377"
     inkscape:window-x="-8"
     inkscape:window-y="-8"
     inkscape:window-maximized="1"
     inkscape:current-layer="g6"><inkscape:grid
       id="grid1"
       units="mm"
       originx="0"
       originy="0"
       spacingx="0.99999995"
       spacingy="1"
       empcolor="#0099e5"
       empopacity="0.30196078"
       color="#0099e5"
       opacity="0.14901961"
       empspacing="5"
       dotted="false"
       gridanglex="30"
       gridanglez="30"
       visible="true" /></sodipodi:namedview><defs
     id="defs1" /><g
     inkscape:label="Layer 1"
     inkscape:groupmode="layer"
     id="layer1"><g
       id="g1"
       transform="matrix(0.24189466,0,0,0.24189466,5.8081794,5.8081368)"
       style="stroke-width:1.70905"><g
         id="g6"
         transform="translate(7.4607151,20.496916)"><g
           id="g7"
           transform="translate(0,65.882943)"><path
             style="fill:#959cb5;stroke-width:1.70905"
             d="m 181.68023,-24.976776 c -3.86829,-3.216067 -9.59063,-2.692619 -12.80146,1.162056 -3.21083,3.854675 -2.68843,9.582249 1.16205,12.794129 l 54.50984,45.424866 11.64045,-13.955139 z"
             id="path1" /><path
             style="fill:#c7cfe2;stroke-width:1.70905"
             d="M 337.95684,18.340686 H 159.12378 c -6.33268,0 -12.09166,2.841408 -15.5014,7.344204 -9.48384,12.526218 -22.27169,23.315088 -22.27169,23.315088 V 401.58007 c 0,0 12.78785,10.78887 22.27169,23.3151 3.40869,4.5019 9.16872,7.3442 15.5014,7.3442 h 178.83306 c 6.33268,0 12.09166,-2.84141 15.5014,-7.3442 9.48384,-12.52711 22.27065,-23.3151 22.27065,-23.3151 V 48.999978 c 0,0 -12.78785,-10.78887 -22.27169,-23.315088 -3.4087,-4.50368 -9.16873,-7.344204 -15.50036,-7.344204 z"
             id="path2" /><path
             style="fill:#afb9d2;stroke-width:1.70905"
             d="m 245.48337,424.89516 c -6.43528,-12.52622 -15.11405,-23.31509 -15.11405,-23.31509 V 48.999978 c 0,0 8.67773,-10.78887 15.113,-23.315088 2.31365,-4.501914 6.22171,-7.344204 10.51818,-7.344204 h -96.87777 c -6.33268,0 -12.09166,2.840524 -15.50035,7.344204 -9.48384,12.526218 -22.27169,23.315088 -22.27169,23.315088 V 401.58007 c 0,0 12.78785,10.78887 22.27169,23.31509 3.40765,4.50191 9.16767,7.34421 15.50035,7.34421 h 96.87777 c -4.29647,-8.5e-4 -8.20453,-2.8423 -10.51713,-7.34421 z"
             id="path3" /><path
             style="fill:#ffdc64;stroke-width:1.70905"
             d="M 375.72784,401.58007 H 121.35069 c -5.01673,0 -9.08498,-3.377 -9.08498,-7.54133 V 62.221909 c 0,-4.16433 4.06825,-7.541331 9.08498,-7.541331 h 254.3782 c 5.01673,0 9.08497,3.377001 9.08497,7.541331 V 394.03874 c -10e-4,4.16433 -4.0672,7.54133 -9.08602,7.54133 z"
             id="path4" /><path
             style="fill:#ffc850;stroke-width:1.70905"
             d="M 221.28434,394.03874 V 62.221909 c 0,-4.16433 4.06825,-7.541331 9.08498,-7.541331 H 121.35069 c -5.01673,0 -9.08498,3.377001 -9.08498,7.541331 V 394.03874 c 0,4.16433 4.06825,7.54133 9.08498,7.54133 h 109.01863 c -5.01673,0 -9.08498,-3.377 -9.08498,-7.54133 z"
             id="path5" /></g></g></g></g></svg>
