<?xml version="1.0" encoding="UTF-8" standalone="no"?>
<!-- Created with Inkscape (http://www.inkscape.org/) -->

<svg
   width="512"
   height="512"
   viewBox="0 0 135.46666 135.46667"
   version="1.1"
   id="svg1"
   xml:space="preserve"
   inkscape:version="1.3 (0e150ed6c4, 2023-07-21)"
   sodipodi:docname="can5.svg"
   xmlns:inkscape="http://www.inkscape.org/namespaces/inkscape"
   xmlns:sodipodi="http://sodipodi.sourceforge.net/DTD/sodipodi-0.dtd"
   xmlns="http://www.w3.org/2000/svg"
   xmlns:svg="http://www.w3.org/2000/svg"><sodipodi:namedview
     id="namedview1"
     pagecolor="#505050"
     bordercolor="#eeeeee"
     borderopacity="1"
     inkscape:showpageshadow="0"
     inkscape:pageopacity="0"
     inkscape:pagecheckerboard="0"
     inkscape:deskcolor="#505050"
     inkscape:document-units="mm"
     showgrid="true"
     inkscape:zoom="1.4941896"
     inkscape:cx="116.45108"
     inkscape:cy="236.24846"
     inkscape:window-width="2560"
     inkscape:window-height="1377"
     inkscape:window-x="-8"
     inkscape:window-y="-8"
     inkscape:window-maximized="1"
     inkscape:current-layer="g1"><inkscape:grid
       id="grid1"
       units="mm"
       originx="0"
       originy="0"
       spacingx="0.99999995"
       spacingy="1"
       empcolor="#0099e5"
       empopacity="0.30196078"
       color="#0099e5"
       opacity="0.14901961"
       empspacing="5"
       dotted="false"
       gridanglex="30"
       gridanglez="30"
       visible="true" /></sodipodi:namedview><defs
     id="defs1" /><g
     inkscape:label="Layer 1"
     inkscape:groupmode="layer"
     id="layer1"><g
       id="g1"
       transform="matrix(0.24189466,0,0,0.24189466,5.8081794,5.8081368)"
       style="stroke-width:1.70905"><g
         id="g6"
         transform="translate(7.4607151,20.496916)"><path
           style="fill:#959cb5;stroke-width:1.70905"
           d="m 181.68023,-24.976776 c -3.86829,-3.216067 -9.59063,-2.692619 -12.80146,1.162056 -3.21083,3.854675 -2.68843,9.582249 1.16205,12.794129 l 54.50984,45.424866 11.64045,-13.955139 z"
           id="path1" /><path
           style="fill:#c7cfe2;stroke-width:1.70905"
           d="M 337.95684,18.340686 H 159.12378 c -6.33268,0 -12.09166,3.367868 -15.5014,8.704949 -9.48384,14.847095 -22.27169,27.634943 -22.27169,27.634943 V 472.58724 c 0,0 12.78785,12.78785 22.27169,27.63495 3.40869,5.33603 9.16872,8.70495 15.5014,8.70495 h 178.83306 c 6.33268,0 12.09166,-3.36787 15.5014,-8.70495 9.48384,-14.84815 22.27065,-27.63495 22.27065,-27.63495 V 54.680578 c 0,0 -12.78785,-12.787848 -22.27169,-27.634943 -3.4087,-5.338128 -9.16873,-8.704949 -15.50036,-8.704949 z"
           id="path2" /><path
           style="fill:#afb9d2;stroke-width:1.70905"
           d="m 245.48337,500.22219 c -6.43528,-14.8471 -15.11405,-27.63495 -15.11405,-27.63495 V 54.680578 c 0,0 8.67773,-12.787848 15.113,-27.634943 2.31365,-5.336035 6.22171,-8.704949 10.51818,-8.704949 h -96.87777 c -6.33268,0 -12.09166,3.366821 -15.50035,8.704949 -9.48384,14.847095 -22.27169,27.634943 -22.27169,27.634943 V 472.58724 c 0,0 12.78785,12.78785 22.27169,27.63495 3.40765,5.33603 9.16767,8.70495 15.50035,8.70495 h 96.87777 c -4.29647,-0.001 -8.20453,-3.36892 -10.51713,-8.70495 z"
           id="path3" /><path
           style="fill:#ffdc64;stroke-width:1.70905"
           d="M 375.72784,472.58724 H 121.35069 c -5.01673,0 -9.08498,-4.06824 -9.08498,-9.08497 V 63.765551 c 0,-5.016731 4.06825,-9.084973 9.08498,-9.084973 h 254.3782 c 5.01673,0 9.08497,4.068242 9.08497,9.084973 V 463.50227 c -10e-4,5.01673 -4.0672,9.08497 -9.08602,9.08497 z"
           id="path4" /><path
           style="fill:#ffc850;stroke-width:1.70905"
           d="M 221.28434,463.50227 V 63.765551 c 0,-5.016731 4.06825,-9.084973 9.08498,-9.084973 H 121.35069 c -5.01673,0 -9.08498,4.068242 -9.08498,9.084973 V 463.50227 c 0,5.01673 4.06825,9.08497 9.08498,9.08497 h 109.01863 c -5.01673,0 -9.08498,-4.06824 -9.08498,-9.08497 z"
           id="path5" /></g></g></g></svg>
