<?xml version="1.0" encoding="UTF-8" standalone="no"?>
<!-- Created with Inkscape (http://www.inkscape.org/) -->

<svg
   width="512"
   height="512"
   viewBox="0 0 135.46666 135.46667"
   version="1.1"
   id="svg1"
   xml:space="preserve"
   inkscape:version="1.3 (0e150ed6c4, 2023-07-21)"
   sodipodi:docname="coke.svg"
   xmlns:inkscape="http://www.inkscape.org/namespaces/inkscape"
   xmlns:sodipodi="http://sodipodi.sourceforge.net/DTD/sodipodi-0.dtd"
   xmlns="http://www.w3.org/2000/svg"
   xmlns:svg="http://www.w3.org/2000/svg"><sodipodi:namedview
     id="namedview1"
     pagecolor="#505050"
     bordercolor="#eeeeee"
     borderopacity="1"
     inkscape:showpageshadow="0"
     inkscape:pageopacity="0"
     inkscape:pagecheckerboard="0"
     inkscape:deskcolor="#505050"
     inkscape:document-units="mm"
     showgrid="true"
     inkscape:zoom="1.4941896"
     inkscape:cx="129.83626"
     inkscape:cy="236.24846"
     inkscape:window-width="2560"
     inkscape:window-height="1377"
     inkscape:window-x="-8"
     inkscape:window-y="-8"
     inkscape:window-maximized="1"
     inkscape:current-layer="g4"><inkscape:grid
       id="grid1"
       units="mm"
       originx="0"
       originy="0"
       spacingx="0.99999995"
       spacingy="1"
       empcolor="#0099e5"
       empopacity="0.30196078"
       color="#0099e5"
       opacity="0.14901961"
       empspacing="5"
       dotted="false"
       gridanglex="30"
       gridanglez="30"
       visible="true" /></sodipodi:namedview><defs
     id="defs1" /><g
     inkscape:label="Layer 1"
     inkscape:groupmode="layer"
     id="layer1"><g
       style="fill:#000000;stroke-width:1.88367"
       id="g11"
       transform="matrix(0.21947174,0,0,0.21947174,11.548568,11.548678)"><g
         id="g4"
         transform="matrix(0.87398911,0,0,0.87398911,-10.076251,-20.335025)"
         style="stroke-width:4.05825">&#10;	<path
   style="fill:#ed3f32;stroke-width:4.05824"
   d="M 350.57917,42.223716 H 258.29725 V 19.153562 c 0,-12.7457545 10.3244,-23.0701545 23.07146,-23.0701545 h 46.14031 c 12.74575,0 23.07015,10.3244 23.07015,23.0701545 z"
   id="path1" />&#10;	<path
   style="fill:#a35a2d;stroke-width:4.05824"
   d="M 396.71948,238.32199 H 212.15694 c 0,-44.72252 15.67673,-88.02463 44.30698,-122.37701 8.64004,-10.37014 13.36906,-23.439958 13.36906,-36.924009 V 42.223716 h 69.21177 v 36.797255 c 0,13.484051 4.72902,26.553869 13.36906,36.924009 28.63025,34.35238 44.30567,77.6558 44.30567,122.37701"
   id="path2" />&#10;	<polygon
   style="fill:#ed3f32;stroke-width:3.10567"
   points="326.717,308.966 326.717,185.379 185.475,185.379 185.475,308.966 "
   id="polygon2"
   transform="matrix(1.3067207,0,0,1.3067207,-30.208389,-3.9165925)" />&#10;	<path
   style="fill:#a35a2d;stroke-width:4.05824"
   d="M 396.71948,399.81568 H 212.15694 c 0,15.86097 11.53573,57.67604 11.53573,103.81634 0,46.14031 -11.53573,68.85373 -11.53573,103.81635 0,34.32886 36.34774,90.03175 69.21177,34.19035 -0.54229,15.83745 11.35018,23.60068 23.07015,23.48569 11.71998,0.11499 23.61245,-7.64824 23.07016,-23.48569 32.86402,55.8414 69.21177,0.13851 69.21177,-34.19035 0,-34.96262 -11.53573,-57.67604 -11.53573,-103.81635 0,-46.1403 11.53442,-87.95667 11.53442,-103.81634"
   id="path3" />&#10;	&#10;<rect
   style="fill:#ffffff;fill-opacity:1;stroke:none;stroke-width:6.45932;stroke-linejoin:round;stroke-dasharray:none"
   id="rect11"
   width="184.56384"
   height="95.906898"
   x="212.15564"
   y="271.11539" /><rect
   style="fill:#000000;fill-opacity:1;stroke:none;stroke-width:6.45931;stroke-linejoin:round;stroke-dasharray:none"
   id="rect12"
   width="111.47031"
   height="10.247427"
   x="248.70241"
   y="313.94513" /></g></g></g></svg>
