<?xml version="1.0" encoding="UTF-8" standalone="no"?>
<!-- Created with Inkscape (http://www.inkscape.org/) -->

<svg
   width="512"
   height="512"
   viewBox="0 0 135.46667 135.46667"
   version="1.1"
   id="svg1"
   xml:space="preserve"
   inkscape:version="1.3 (0e150ed6c4, 2023-07-21)"
   sodipodi:docname="wein_weiss.svg"
   xmlns:inkscape="http://www.inkscape.org/namespaces/inkscape"
   xmlns:sodipodi="http://sodipodi.sourceforge.net/DTD/sodipodi-0.dtd"
   xmlns="http://www.w3.org/2000/svg"
   xmlns:svg="http://www.w3.org/2000/svg"><sodipodi:namedview
     id="namedview1"
     pagecolor="#505050"
     bordercolor="#eeeeee"
     borderopacity="1"
     inkscape:showpageshadow="0"
     inkscape:pageopacity="0"
     inkscape:pagecheckerboard="0"
     inkscape:deskcolor="#505050"
     inkscape:document-units="mm"
     showgrid="true"
     inkscape:zoom="1.6071457"
     inkscape:cx="125.68866"
     inkscape:cy="255.73287"
     inkscape:window-width="2560"
     inkscape:window-height="1377"
     inkscape:window-x="-8"
     inkscape:window-y="-8"
     inkscape:window-maximized="1"
     inkscape:current-layer="layer1"><inkscape:grid
       id="grid1"
       units="mm"
       originx="0"
       originy="0"
       spacingx="1"
       spacingy="1"
       empcolor="#0099e5"
       empopacity="0.30196078"
       color="#0099e5"
       opacity="0.14901961"
       empspacing="5"
       dotted="false"
       gridanglex="30"
       gridanglez="30"
       visible="true" /></sodipodi:namedview><defs
     id="defs1">                        </defs><g
     inkscape:label="Layer 1"
     inkscape:groupmode="layer"
     id="layer1"><polygon
       style="fill:#fefdca"
       points="451,192.5 457.21,252.5 398.61,282.5 425.5,192.5 "
       id="polygon2"
       transform="matrix(0.26043002,0,0,0.26043002,-10.733307,6.428518)" /><path
       style="fill:#fdfc86;stroke-width:0.26043;fill-opacity:1"
       d="m 108.97856,78.364498 -0.64066,-6.1774 h -7.44829 L 93.4387,95.6258 c 8.63065,0 15.6258,-6.995148 15.6258,-15.625802 0,-0.552111 -0.0286,-1.099014 -0.0859,-1.6355 z"
       id="path2" /><polygon
       style="fill:#fd7555"
       points="235,7.5 265,7.5 265,37.5 225,57.5 "
       id="polygon3"
       transform="matrix(0.26043002,0,0,0.26043002,-10.733307,6.428518)" /><polygon
       style="fill:#feae99;fill-opacity:1"
       points="235,7.5 235,57.5 205,37.5 205,7.5 "
       id="polygon4"
       transform="matrix(0.26043002,0,0,0.26043002,-10.733307,6.428518)" /><polygon
       style="fill:#f47e63;fill-opacity:1"
       points="235,37.5 265,37.5 265,115 215,135 "
       id="polygon5"
       transform="matrix(0.26043002,0,0,0.26043002,-10.733307,6.428518)" /><polygon
       style="fill:#fda894;fill-opacity:1"
       points="235,37.5 235,135 205,115 205,37.5 "
       id="polygon6"
       transform="matrix(0.26043002,0,0,0.26043002,-10.733307,6.428518)" /><path
       style="fill:#6a962b;stroke-width:0.26043;fill-opacity:1"
       d="m 69.999998,64.374197 c 0,-7.995201 -4.804933,-14.865345 -11.68289,-17.886334 l -0.81775,80.389537 h 4.68774 c 4.297095,0 7.8129,-3.5158 7.8129,-7.8129 V 95.6258 L 65.907601,79.999998 Z"
       id="path6" /><path
       style="fill:#87b83f;stroke-width:0.26043;fill-opacity:1"
       d="m 62.187098,60.988607 c 0,-5.758108 -1.494869,-10.927644 -3.86999,-14.500744 -0.01302,-0.0052 -0.02344,-0.01041 -0.03646,-0.01563 V 36.37797 H 42.654846 v 10.094268 c -6.896186,3.013175 -11.71935,9.893736 -11.71935,17.901959 L 41.297746,79.999998 30.935496,95.6258 v 23.4387 c 0,4.2971 3.515805,7.8129 7.8129,7.8129 h 18.750962 c 2.578256,0 4.68774,-3.5158 4.68774,-7.8129 z"
       id="path7" /><polygon
       style="fill:#fdfc86;fill-opacity:1"
       points="280,342.5 250,282.5 280,222.5 310,222.5 310,342.5 "
       id="polygon7"
       transform="matrix(0.26043002,0,0,0.26043002,-10.733307,6.428518)" /><rect
       x="30.935495"
       y="64.374191"
       style="fill:#fefde2;stroke-width:0.26043;fill-opacity:1"
       width="31.251602"
       height="31.251602"
       id="rect7" /><polygon
       style="fill:#ffffff"
       points="385.7,272.5 342.79,252.5 349,192.5 425.5,192.5 428.61,252.5 "
       id="polygon8"
       transform="matrix(0.26043002,0,0,0.26043002,-10.733307,6.428518)" /><path
       style="fill:#fefdca;stroke-width:0.26043;fill-opacity:1"
       d="m 101.20993,78.364498 c 0.026,0.536486 0.0417,1.083389 0.0417,1.6355 0,8.630654 -3.497569,15.625802 -7.812897,15.625802 -8.63065,0 -15.625803,-6.995148 -15.625803,-15.625802 0,-0.552111 0.02862,-1.099014 0.08594,-1.6355 l 0.640657,-6.1774 h 22.350113 z"
       id="path8" /><path
       style="fill:#fefdca;stroke-width:0.26043"
       d="m 93.4387,121.6688 c -6.640964,0 -6.640964,5.2086 -13.281928,5.2086 h 26.563858 c -6.64097,0 -6.64097,-5.2086 -13.28193,-5.2086 z"
       id="path9" /><path
       d="M 60.233873,45.236237 V 18.034321 c 0.758111,-0.268503 1.30215,-0.989634 1.30215,-1.839677 0,-0.850044 -0.544039,-1.571174 -1.30215,-1.839678 V 8.3817434 c 0,-1.0787012 -0.874264,-1.9532254 -1.953225,-1.9532254 H 42.654846 c -1.078961,0 -1.953225,0.8745242 -1.953225,1.9532254 v 5.9732226 c -0.758112,0.268504 -1.30215,0.989634 -1.30215,1.839678 0,0.850043 0.544038,1.571174 1.30215,1.839677 V 45.236237 C 33.541358,48.891633 28.98227,56.267792 28.98227,64.374197 V 95.6258 c 0,1.078701 0.874264,1.953225 1.953226,1.953225 H 68.046774 V 119.0645 c 0,3.23115 -2.628781,5.85967 -5.859676,5.85967 H 38.748396 c -3.230894,0 -5.859675,-2.62852 -5.859675,-5.85967 v -15.6258 c 0,-1.0787 -0.874264,-1.95322 -1.953225,-1.95322 -1.078962,0 -1.953226,0.87452 -1.953226,1.95322 v 15.6258 c 0,5.38517 4.380954,9.76613 9.766126,9.76613 h 23.438702 c 5.385172,0 9.766126,-4.38096 9.766126,-9.76613 V 64.374197 c 0,-8.106405 -4.559088,-15.482825 -11.719351,-19.13796 z M 44.608072,18.147869 h 11.71935 v 16.276876 h -11.71935 z m 11.71935,-7.812901 v 3.90645 h -11.71935 v -3.90645 z M 43.437178,48.261652 c 0.710974,-0.310953 1.170894,-1.013593 1.170894,-1.789935 v -8.140521 h 11.71935 v 8.140521 c 0,0.776342 0.45992,1.478982 1.170894,1.789935 5.804724,2.536849 9.748677,7.965513 10.439858,14.15932 H 32.99732 c 0.691181,-6.193807 4.635133,-11.622471 10.439858,-14.15932 z M 32.888721,93.672574 V 66.327422 h 35.158053 v 27.345152 z"
       id="path12"
       style="fill:#000000;stroke-width:0.26043" /><path
       d="m 106.72063,124.92417 c -2.64571,0 -3.87702,-0.96567 -5.43543,-2.18787 -1.412057,-1.10734 -3.11058,-2.43554 -5.893275,-2.87202 V 97.467822 c 8.777015,-0.975051 15.625805,-8.435331 15.625805,-17.467824 0,-0.610969 -0.032,-1.229229 -0.0953,-1.836813 l -0.63935,-6.170107 c -0.001,-0.01198 -1.61962,-15.633094 -1.61962,-15.633094 -0.10313,-0.995363 -0.94198,-1.751912 -1.94281,-1.751912 H 80.156772 c -1.000837,0 -1.839681,0.756549 -1.942811,1.751912 l -2.258972,21.803201 c -0.06328,0.610709 -0.09532,1.228709 -0.09532,1.836813 0,9.032754 6.848791,16.492773 15.625803,17.467824 v 22.396458 c -2.782695,0.43648 -4.481218,1.76468 -5.893268,2.87202 -1.558418,1.2222 -2.789727,2.18787 -5.435434,2.18787 -1.078962,0 -1.953226,0.87453 -1.953226,1.95323 0,1.0787 0.874264,1.95323 1.953226,1.95323 h 26.56386 c 1.07897,0 1.95323,-0.87453 1.95323,-1.95323 0,-1.0787 -0.87426,-1.95323 -1.95323,-1.95323 z M 79.766122,79.999998 c 0,-0.474242 0.02527,-0.95682 0.07449,-1.434188 L 81.918055,58.514522 H 104.9596 l 1.21413,11.71935 H 86.351097 c -1.078962,0 -1.953225,0.874525 -1.953225,1.953226 0,1.078701 0.874263,1.953225 1.953225,1.953225 h 20.227333 l 0.45863,4.426269 c 0.0492,0.474764 0.0745,0.95708 0.0745,1.433406 0,7.53919 -6.13365,13.672576 -13.67258,13.672576 -7.538925,0 -13.672838,-6.133386 -13.672838,-13.672576 z m 9.412464,44.924172 c 1.115682,-0.77191 2.299596,-1.30214 4.260114,-1.30214 1.960517,0 3.144431,0.53023 4.260113,1.30214 z"
       id="path13"
       style="fill:#000000;stroke-width:0.26043" /></g></svg>
